<svg xmlns="http://www.w3.org/2000/svg" xmlns:xlink="http://www.w3.org/1999/xlink" version="1.1" id="Layer_1" x="0px" y="0px" viewBox="0 0 432 288" style="enable-background:new 0 0 432 288;" xml:space="preserve">
<style type="text/css">
	.st0{clip-path:url(#SVGID_3_);}
	.st1{opacity:0.77;fill:url(#SVGID_4_);}
	.st2{opacity:0.57;fill:url(#SVGID_5_);}
	.st3{opacity:0.35;fill:url(#SVGID_6_);}
	.st4{opacity:0.38;fill:url(#SVGID_7_);}
	.st5{opacity:0.24;fill:url(#SVGID_8_);}
	.st6{opacity:0.96;fill:url(#SVGID_9_);}
	.st7{opacity:0.72;fill:url(#SVGID_10_);}
	.st8{opacity:0.77;fill:url(#SVGID_11_);}
	.st9{opacity:0.88;fill:url(#SVGID_12_);}
	.st10{opacity:0.83;fill:url(#SVGID_13_);}
	.st11{opacity:0.21;fill:url(#SVGID_14_);}
	.st12{opacity:0.37;fill:url(#SVGID_15_);}
	.st13{opacity:0.81;fill:url(#SVGID_16_);}
	.st14{opacity:0.6;fill:url(#SVGID_17_);}
	.st15{opacity:0.73;fill:url(#SVGID_18_);}
	.st16{opacity:0.94;fill:url(#SVGID_19_);}
	.st17{opacity:0.74;fill:url(#SVGID_20_);}
	.st18{opacity:0.77;fill:url(#SVGID_21_);}
	.st19{opacity:0.57;fill:url(#SVGID_22_);}
	.st20{opacity:0.38;fill:url(#SVGID_23_);}
	.st21{opacity:0.24;fill:url(#SVGID_24_);}
	.st22{opacity:0.96;fill:url(#SVGID_25_);}
	.st23{opacity:0.72;fill:url(#SVGID_26_);}
	.st24{opacity:0.77;fill:url(#SVGID_27_);}
	.st25{opacity:0.88;fill:url(#SVGID_28_);}
	.st26{opacity:0.83;fill:url(#SVGID_29_);}
	.st27{opacity:0.21;fill:url(#SVGID_30_);}
	.st28{opacity:0.37;fill:url(#SVGID_31_);}
	.st29{opacity:0.81;fill:url(#SVGID_32_);}
	.st30{opacity:0.6;fill:url(#SVGID_33_);}
	.st31{opacity:0.94;fill:url(#SVGID_34_);}
	.st32{fill:url(#SVGID_35_);}
	.st33{fill:#808080;}
	.st34{fill:#979797;}
	.st35{fill:#B3B2B3;}
	.st36{fill:#CBCBCA;}
	.st37{fill:#F05E5C;}
	.st38{fill:#F27576;}
	.st39{fill:#432C47;}
	.st40{fill:#C5C4E2;}
	.st41{fill:#5C2D55;}
	.st42{fill:#5A78BA;}
	.st43{fill:#2A417F;}
	.st44{fill:#34173A;}
	.st45{fill:#653870;}
	.st46{fill:#2F499E;}
	.st47{fill:#212557;}
</style>
<g>
	<g>
		<defs>
			<rect id="SVGID_1_" x="0" y="0" width="432" height="288"/>
		</defs>
		<linearGradient id="SVGID_2_" gradientUnits="userSpaceOnUse" x1="216" y1="-16.8267" x2="216" y2="279.7701">
			<stop offset="0" style="stop-color:#f7f7f9"/>
			<stop offset="0.2555" style="stop-color:#f7f7f9"/>
			<stop offset="0.8331" style="stop-color:#f7f7f9"/>
			<stop offset="1" style="stop-color:#f7f7f9"/>
		</linearGradient>
		<use xlink:href="#SVGID_1_" style="overflow:visible;fill:url(#SVGID_2_);"/>
		<clipPath id="SVGID_3_">
			<use xlink:href="#SVGID_1_" style="overflow:visible;"/>
		</clipPath>
		<g class="st0">
			<linearGradient id="SVGID_4_" gradientUnits="userSpaceOnUse" x1="61.6719" y1="311.8214" x2="61.6719" y2="157.3846">
				<stop offset="0" style="stop-color:#3880FF"/>
				<stop offset="0.2555" style="stop-color:#679EFF"/>
				<stop offset="0.8331" style="stop-color:#DCE9FF"/>
				<stop offset="1" style="stop-color:#FFFFFF"/>
			</linearGradient>
			<path class="st1" d="M129.1,243.5c10.1-11.2,12.2-26.8,3.7-40c-9.3-14.5-28.6-21.7-47.1-19.1c-0.5-3.8-1.8-7.5-4.1-11.1     C72.1,158.6,50,153.1,32.3,161c-3.7,1.7-6.9,3.8-9.6,6.2c-9.6-8.3-24.2-11.5-37.5-7.8v152.3c7.5,0.2,15.2-1.2,22.3-4.4     c6.3-2.8,11.4-6.7,15.3-11.2c12.8,15.2,37.5,20.3,57.6,11.3c11.6-5.2,19.2-14,22.2-23.8c6,0.8,12.4,0,18.2-2.6     c14.3-6.4,19.6-21.2,12-33.1C131.7,246.3,130.5,244.8,129.1,243.5z"/>
			<linearGradient id="SVGID_5_" gradientUnits="userSpaceOnUse" x1="175.6194" y1="193.4022" x2="175.6194" y2="121.622">
				<stop offset="0" style="stop-color:#3880FF"/>
				<stop offset="0.2555" style="stop-color:#679EFF"/>
				<stop offset="0.8331" style="stop-color:#DCE9FF"/>
				<stop offset="1" style="stop-color:#FFFFFF"/>
			</linearGradient>
			<path class="st2" d="M224.1,143.1c-4.3-6.7-13.3-10.1-21.9-8.9c-0.2-1.8-0.8-3.5-1.9-5.1c-4.4-6.9-14.7-9.4-22.9-5.8     c-1.7,0.8-3.2,1.8-4.5,2.9c-5.1-4.4-13.4-5.7-20.2-2.7c-7.8,3.5-11,11.4-7.5,18c-3.8-0.7-7.9-0.3-11.7,1.3     c-8.2,3.7-11.3,12.2-6.9,19.1c2.3,3.5,6.1,5.9,10.5,6.9c-2.6,4.7-2.5,10.4,0.6,15.3c5.4,8.4,18,11.6,28.1,7.1     c2.9-1.3,5.3-3.1,7.1-5.2c6,7.1,17.4,9.5,26.8,5.3c5.4-2.4,8.9-6.5,10.3-11.1c2.8,0.4,5.8,0,8.4-1.2c6.6-3,9.1-9.8,5.6-15.4     c-0.5-0.8-1.1-1.4-1.7-2.1C227.1,156.4,228,149.2,224.1,143.1z"/>
			<linearGradient id="SVGID_6_" gradientUnits="userSpaceOnUse" x1="11.8511" y1="218.7513" x2="11.8511" y2="105.3733">
				<stop offset="0" style="stop-color:#3880FF"/>
				<stop offset="0.2555" style="stop-color:#679EFF"/>
				<stop offset="0.8331" style="stop-color:#DCE9FF"/>
				<stop offset="1" style="stop-color:#FFFFFF"/>
			</linearGradient>
			<path class="st3" d="M21.2,125.2c-7-2.7-14.7-2.9-21.5-1.1c-1.3-6.9-6.5-13.1-14.5-16.4v103.6c13.5,2.8,28-2.7,34-13.6     c4.9-8.9,2.9-18.9-4.1-26c8.7-1.6,16.5-6.5,20.5-13.8C42.6,145.5,36.1,130.9,21.2,125.2z"/>
			<linearGradient id="SVGID_7_" gradientUnits="userSpaceOnUse" x1="422.5093" y1="226.3676" x2="422.5093" y2="130.7408">
				<stop offset="0" style="stop-color:#3880FF"/>
				<stop offset="0.2555" style="stop-color:#679EFF"/>
				<stop offset="0.8331" style="stop-color:#DCE9FF"/>
				<stop offset="1" style="stop-color:#FFFFFF"/>
			</linearGradient>
			<path class="st4" d="M455.8,133.3c-7.2-0.3-14.3,2.5-18.6,7.5c-2.5-2.4-5.6-4.4-9.3-5.9c-13.7-5.3-29.9-0.3-36.2,11.1     c-5.7,10.2-1.4,22.1,9.4,28.3c-1.8,1.4-3.3,3.2-4.4,5.2c-4.8,8.6-0.2,18.8,10.1,22.8c7.1,2.7,15.2,1.8,21-1.9     c1.8,7.1,7.4,13.4,15.9,16.6c3.9,1.5,8,2.2,12.1,2.2V133.3z"/>
			<linearGradient id="SVGID_8_" gradientUnits="userSpaceOnUse" x1="431.5401" y1="246.9775" x2="431.5401" y2="84.16">
				<stop offset="0" style="stop-color:#3880FF"/>
				<stop offset="0.2555" style="stop-color:#679EFF"/>
				<stop offset="0.8331" style="stop-color:#DCE9FF"/>
				<stop offset="1" style="stop-color:#FFFFFF"/>
			</linearGradient>
			<path class="st5" d="M455.8,114c-8,2.7-14.9,7.6-19.2,14.5c-2.8,4.4-4.1,9.1-4.2,13.8c-8.6,2.5-16.2,7.6-20.8,14.9     c-9.6,15.2-2.5,34,15.8,42c7.6,3.3,15.8,4.2,23.6,3.1c0.7,5.1,2.4,10,4.9,14.7V114z"/>
			<linearGradient id="SVGID_9_" gradientUnits="userSpaceOnUse" x1="259.3249" y1="204.5446" x2="259.3249" y2="125.5578">
				<stop offset="0" style="stop-color:#3880FF"/>
				<stop offset="0.2555" style="stop-color:#679EFF"/>
				<stop offset="0.8331" style="stop-color:#DCE9FF"/>
				<stop offset="1" style="stop-color:#FFFFFF"/>
			</linearGradient>
			<path class="st6" d="M312.9,143.7c-4.5-2-9.4-2.6-14.1-2c-1.6-4.1-5-7.7-9.9-9.8c-7.5-3.3-16.3-2.3-22.5,2     c-1.9-2.6-4.6-4.9-8.1-6.4c-9.9-4.3-22.2-1.1-27.4,7.2c-1,1.6-1.7,3.3-2,4.9c-8.2-2.1-17.3,0.9-21.4,7.5c-1.3,2.1-2,4.4-2.1,6.7     c-4.2,1.2-7.9,3.7-10.1,7.2c-4.6,7.4-1.2,16.5,7.7,20.4c3.7,1.6,7.7,2,11.5,1.5c1.1,7.8,6.6,15,15.6,18.9     c12.6,5.5,27.7,2.7,36.4-6.1c1.9,2.4,4.6,4.4,7.8,5.8c10.7,4.6,23.8,1.2,29.4-7.7c2.7-4.4,3.1-9.3,1.6-13.6     c7.2-0.8,13.8-4.4,17.4-10.2C328.7,160.4,324.3,148.6,312.9,143.7z"/>
			<linearGradient id="SVGID_10_" gradientUnits="userSpaceOnUse" x1="73.5947" y1="252.4646" x2="73.5947" y2="130.5669">
				<stop offset="0" style="stop-color:#3880FF"/>
				<stop offset="0.2555" style="stop-color:#679EFF"/>
				<stop offset="0.8331" style="stop-color:#DCE9FF"/>
				<stop offset="1" style="stop-color:#FFFFFF"/>
			</linearGradient>
			<path class="st7" d="M155.9,189.2c0-9.3-6.6-17.4-16.2-21.1c0.1-1.2,0.2-2.4,0.2-3.6c0-18.8-18.2-34-40.8-34     c-13.2,0-24.9,5.2-32.3,13.3c-5.5-3.5-12.3-5.6-19.7-5.6c-17.8,0-32.3,12-32.3,26.9c0,1.9,0.2,3.8,0.7,5.6c-0.2,0-0.5,0-0.7,0     c-13,0-23.6,8.8-23.6,19.7c0,8.8,6.9,16.3,16.5,18.8c-1.5,3-2.3,6.3-2.3,9.7c0,13.9,13.5,25.2,30.2,25.2c0.8,0,1.6,0,2.3-0.1     c4.9,5.1,12.4,8.4,20.9,8.4c9.2,0,17.2-3.8,22-9.7c3,0.9,6.3,1.3,9.7,1.3c10,0,18.9-4.1,24.4-10.4c2.9,0.9,6,1.4,9.3,1.4     c14.7,0,26.7-10,26.7-22.2c0-3-0.7-5.8-2-8.4C153.3,200.4,155.9,195.1,155.9,189.2z"/>
			<linearGradient id="SVGID_11_" gradientUnits="userSpaceOnUse" x1="374.9304" y1="261.4733" x2="374.9304" y2="195.8263">
				<stop offset="0" style="stop-color:#3880FF"/>
				<stop offset="0.2555" style="stop-color:#679EFF"/>
				<stop offset="0.8331" style="stop-color:#DCE9FF"/>
				<stop offset="1" style="stop-color:#FFFFFF"/>
			</linearGradient>
			<path class="st8" d="M419.3,227.4c0-5-3.6-9.4-8.7-11.4c0.1-0.6,0.1-1.3,0.1-1.9c0-10.1-9.8-18.3-21.9-18.3     c-7.1,0-13.4,2.8-17.4,7.2c-2.9-1.9-6.6-3-10.6-3c-9.6,0-17.4,6.5-17.4,14.5c0,1,0.1,2.1,0.4,3c-0.1,0-0.3,0-0.4,0     c-7,0-12.7,4.7-12.7,10.6c0,4.7,3.7,8.8,8.9,10.1c-0.8,1.6-1.3,3.4-1.3,5.2c0,7.5,7.3,13.6,16.3,13.6c0.4,0,0.8,0,1.3,0     c2.6,2.8,6.7,4.5,11.3,4.5c4.9,0,9.3-2.1,11.9-5.2c1.6,0.5,3.4,0.7,5.2,0.7c5.4,0,10.2-2.2,13.1-5.6c1.6,0.5,3.2,0.8,5,0.8     c7.9,0,14.4-5.4,14.4-12c0-1.6-0.4-3.1-1.1-4.5C417.8,233.4,419.3,230.6,419.3,227.4z"/>
			<linearGradient id="SVGID_12_" gradientUnits="userSpaceOnUse" x1="304.86" y1="286.9179" x2="304.86" y2="148.0014">
				<stop offset="0" style="stop-color:#3880FF"/>
				<stop offset="0.2555" style="stop-color:#679EFF"/>
				<stop offset="0.8331" style="stop-color:#DCE9FF"/>
				<stop offset="1" style="stop-color:#FFFFFF"/>
			</linearGradient>
			<path class="st9" d="M398.7,223.2c-2.6-2.3-5.7-4.3-9.2-5.8c6.5-4.7,11.1-11.1,12.7-18.4c0.4-1.9,0.6-3.9,0.6-5.9     c0-17.7-17.3-32.1-38.6-32.1c-8.5,0-16.4,2.3-22.8,6.2c-6-11.3-19.5-19.2-35.3-19.2c-18.9,0-34.6,11.4-37.9,26.3     c-6.9-4.5-15.6-7.2-25-7.2c-22.6,0-40.9,15.2-40.9,34c0,16.4,14,30.2,32.6,33.3c-2.6,4.2-4.1,9-4.1,14.1     c0,16.9,16.4,30.6,36.7,30.6c9.1,0,17.4-2.8,23.9-7.3c6.4,9,18.1,15,31.6,15c16.6,0,30.7-9.2,35.2-21.9     c4.9,2.4,10.5,3.8,16.6,3.8c18,0,32.6-12.2,32.6-27.2C407.4,234.5,404.1,228.1,398.7,223.2z"/>
			<linearGradient id="SVGID_13_" gradientUnits="userSpaceOnUse" x1="352.5318" y1="269.8028" x2="352.5318" y2="126.7879">
				<stop offset="0" style="stop-color:#3880FF"/>
				<stop offset="0.2555" style="stop-color:#679EFF"/>
				<stop offset="0.8331" style="stop-color:#DCE9FF"/>
				<stop offset="1" style="stop-color:#FFFFFF"/>
			</linearGradient>
			<path class="st10" d="M455.8,146.6c-6.7-8.8-18.1-14.8-31.5-15.5c-11-0.5-21.2,2.7-28.9,8.4c-4.7-7.1-13.5-12.2-24-12.7     c-9.4-0.5-18,2.9-23.8,8.4c-5.6-3.5-12.5-5.8-20.1-6.2c-20.4-1-37.9,12-39,29c-0.2,3.1,0.1,6.1,1,9c-0.8,1.2-1.6,2.4-2.2,3.6     c-20-0.5-36.9,12.3-38,29c-1.2,17,14.4,31.6,34.8,32.5c2.2,0.1,4.4,0,6.5-0.2c3.8,8.6,13.4,15,25.1,15.5c5.1,0.2,10-0.7,14.3-2.4     c3.8,13.5,17.9,23.8,35.3,24.7c16.2,0.8,30.6-6.9,37.2-18.4c6,4,13.6,6.6,21.8,7c12.5,0.6,23.9-3.8,31.5-11.2V146.6z"/>
			<linearGradient id="SVGID_14_" gradientUnits="userSpaceOnUse" x1="428.0311" y1="295.6148" x2="428.0311" y2="168.9476">
				<stop offset="0" style="stop-color:#3880FF"/>
				<stop offset="0.2555" style="stop-color:#679EFF"/>
				<stop offset="0.8331" style="stop-color:#DCE9FF"/>
				<stop offset="1" style="stop-color:#FFFFFF"/>
			</linearGradient>
			<path class="st11" d="M455.8,172.8c-11.5,3.8-20,12.9-20.7,23.8c-0.2,2.8,0.1,5.4,0.9,8c-0.7,1-1.4,2.1-1.9,3.2     c-17.7-0.5-32.7,10.9-33.7,25.7c-1,15,12.7,27.9,30.8,28.8c2,0.1,3.9,0,5.8-0.2c3,6.8,10.1,12,18.9,13.4V172.8z"/>
			<linearGradient id="SVGID_15_" gradientUnits="userSpaceOnUse" x1="451.0668" y1="296.6751" x2="451.0668" y2="138.1029">
				<stop offset="0" style="stop-color:#3880FF"/>
				<stop offset="0.2555" style="stop-color:#679EFF"/>
				<stop offset="0.8331" style="stop-color:#DCE9FF"/>
				<stop offset="1" style="stop-color:#FFFFFF"/>
			</linearGradient>
			<path class="st12" d="M455.8,197.4c-1.8,1.5-3.5,3.2-4.8,5.2c-7.8,10.9-5.4,24.5,4.8,33.1V197.4z"/>
			<linearGradient id="SVGID_16_" gradientUnits="userSpaceOnUse" x1="226.538" y1="309.8661" x2="226.538" y2="142.15">
				<stop offset="0" style="stop-color:#3880FF"/>
				<stop offset="0.2555" style="stop-color:#679EFF"/>
				<stop offset="0.8331" style="stop-color:#DCE9FF"/>
				<stop offset="1" style="stop-color:#FFFFFF"/>
			</linearGradient>
			<path class="st13" d="M344.4,221.7c-3-1.5-6.1-2.6-9.4-3.2c5-14.1-1.7-29.7-17.5-37.6c-10-5-21.5-5.9-31.8-3.3     c-1.4-11.9-9.3-23.2-22.6-29.8c-22.2-11.1-51.1-5.1-64.4,13.4c-0.6,0.8-1.2,1.7-1.7,2.6c-0.8-0.4-1.5-0.9-2.4-1.3     c-21-10.5-48.1-4.8-60.7,12.6c-4.8,6.7-6.8,14.2-6.2,21.5c-12.1-0.4-24.1,4.6-30.8,13.9c-9.8,13.6-4.5,31.2,11.8,39.3     c5.7,2.8,12,4.2,18.1,4.1c-3.4,8.7,0.6,18.5,10.4,23.3c2.2,1.1,4.5,1.8,6.8,2.3c2.6,8.8,9.2,16.8,19.3,21.9     c0.1,0,0.1,0.1,0.2,0.1c2,1.9,4.4,3.5,7.1,4.9c14,7,32,3.5,40.9-7.7c1.1-0.8,2.2-1.6,3.3-2.5c1.3,1,2.6,1.9,4.2,2.7     c10,5,22.6,3.2,30.1-3.8c3.1,3.4,7.1,6.5,11.8,8.8c20,10,46,4.6,58-12c3.9-5.4,5.8-11.3,6-17.2c12.2,0.5,24.4-4.4,31.2-13.8     C365.9,247.3,360.6,229.8,344.4,221.7z"/>
			<linearGradient id="SVGID_17_" gradientUnits="userSpaceOnUse" x1="386.7066" y1="317.1169" x2="386.7066" y2="151.8287">
				<stop offset="0" style="stop-color:#3880FF"/>
				<stop offset="0.2555" style="stop-color:#679EFF"/>
				<stop offset="0.8331" style="stop-color:#DCE9FF"/>
				<stop offset="1" style="stop-color:#FFFFFF"/>
			</linearGradient>
			<path class="st14" d="M455.8,160.9c-3.5,2.3-6.6,5.1-9.3,8.2c-16.4-3-33.1,4.8-38.5,18.3c-0.1,0.2-0.1,0.4-0.2,0.6     c-2-1-4.2-1.8-6.5-2.4c-19.5-5.4-40.5,3.3-47,19.6c-0.9,2.3-1.5,4.7-1.8,7c-14.7,1.9-27.7,10.5-32.7,23c-7.2,18,4.5,37.4,26,43.4     c7.6,2.1,15.5,2.2,22.7,0.8c1.4,15.9,14.1,30.4,33.4,35.7c20.1,5.6,41.4-0.2,53.9-13.3c0,0,0,0,0,0V160.9z"/>
			<linearGradient id="SVGID_18_" gradientUnits="userSpaceOnUse" x1="-0.242" y1="245.0614" x2="-0.242" y2="71.5006">
				<stop offset="0" style="stop-color:#3880FF"/>
				<stop offset="0.2555" style="stop-color:#679EFF"/>
				<stop offset="0.8331" style="stop-color:#DCE9FF"/>
				<stop offset="1" style="stop-color:#FFFFFF"/>
			</linearGradient>
			<path class="st15" d="M-9.6,120.7c-1.7-0.5-3.4-0.8-5.2-1.1v101c8-4.3,14.3-10.8,17.6-18.9c4.1-10.3,2.3-20.9-3.7-29.6     c6-3.5,10.8-8.5,13.3-14.7C18.5,142.2,8.7,125.7-9.6,120.7z"/>
			<linearGradient id="SVGID_19_" gradientUnits="userSpaceOnUse" x1="146.239" y1="248.198" x2="146.239" y2="192.4154">
				<stop offset="0" style="stop-color:#3880FF"/>
				<stop offset="0.2555" style="stop-color:#679EFF"/>
				<stop offset="0.8331" style="stop-color:#DCE9FF"/>
				<stop offset="1" style="stop-color:#FFFFFF"/>
			</linearGradient>
			<path class="st16" d="M189.3,215.7c0-7.8-7.5-14-16.9-14c-0.7,0-1.5,0-2.2,0.1c-1.4-4.3-5.5-7.9-11.1-9c-7-1.5-14.1,1.3-17.3,6.5     c-1.2-0.6-2.5-1.1-3.9-1.3c-7.8-1.6-15.7,2.3-17.7,8.8l0,0.1c-0.5-0.1-0.9-0.3-1.4-0.4c-6.7-1.4-13.6,2-15.3,7.6     c-1.7,5.6,2.4,11.3,9.1,12.7c0.1,0,0.1,0,0.2,0c-0.4,0.7-0.7,1.4-0.9,2.1c-1.2,4.8,2.6,9.5,8.4,10.5c1.9,0.3,3.8,0.2,5.5-0.3     c1.5,4.2,5.5,7.6,11,8.7c6.2,1.3,12.4-0.7,16-4.7c1,0.4,2,0.7,3.1,1c8.1,1.7,16.3-2.4,18.3-9.1c0.5-1.8,0.6-3.6,0.2-5.3     C182.9,228.8,189.3,222.9,189.3,215.7z"/>
			<linearGradient id="SVGID_20_" gradientUnits="userSpaceOnUse" x1="29.2953" y1="218.1021" x2="29.2953" y2="134.0251">
				<stop offset="0" style="stop-color:#3880FF"/>
				<stop offset="0.2555" style="stop-color:#679EFF"/>
				<stop offset="0.8331" style="stop-color:#DCE9FF"/>
				<stop offset="1" style="stop-color:#FFFFFF"/>
			</linearGradient>
			<path class="st17" d="M73.3,169.2c0-11.7-11.4-21.2-25.4-21.2c-1.1,0-2.2,0.1-3.3,0.2c-2.1-6.5-8.3-11.8-16.7-13.6     c-10.6-2.2-21.3,2-26.1,9.7c-1.8-0.9-3.8-1.6-5.9-2c-3.6-0.8-7.3-0.7-10.7,0v71.3c2.6,1.8,5.7,3.1,9.1,3.9     c9.3,1.9,18.7-1.1,24.1-7.1c1.5,0.6,3,1.1,4.7,1.5c12.2,2.5,24.5-3.6,27.5-13.7c0.8-2.7,0.9-5.4,0.3-7.9     C63.6,188.9,73.3,180,73.3,169.2z"/>
		</g>
		<g class="st0">
			
				<linearGradient id="SVGID_21_" gradientUnits="userSpaceOnUse" x1="-2486.6267" y1="-3300.5183" x2="-2486.6267" y2="-3454.9551" gradientTransform="matrix(-1 0 0 -1 -2047.3116 -3136.9746)">
				<stop offset="0" style="stop-color:#f7f7f9"/>
				<stop offset="0.2555" style="stop-color:#f7f7f9"/>
				<stop offset="0.8331" style="stop-color:#f7f7f9"/>
				<stop offset="1" style="f7f7f9"/>
			</linearGradient>
			<path class="st18" d="M455.8,191.6c-5.3-0.3-10.7,0.6-15.7,2.8c-14.3,6.4-19.6,21.2-12,33.1c1,1.6,2.3,3.1,3.7,4.4     c-10.1,11.2-12.2,26.8-3.7,40c6,9.4,16.2,15.7,27.7,18.3V191.6z"/>
			
				<linearGradient id="SVGID_22_" gradientUnits="userSpaceOnUse" x1="-2427.4927" y1="-3398.5283" x2="-2427.4927" y2="-3470.3083" gradientTransform="matrix(-1 0 0 -1 -2047.3116 -3136.9746)">
				<stop offset="0" style="stop-color:#FFFFFF"/>
				<stop offset="0.2555" style="stop-color:#FFFFFF"/>
				<stop offset="0.8331" style="stop-color:#FFFFFF"/>
				<stop offset="1" style="stop-color:#FFFFFF"/>
			</linearGradient>
			<path class="st19" d="M331.7,311.9c4.3,6.7,13.3,10.1,21.9,8.9c0.2,1.8,0.8,3.5,1.9,5.1c4.4,6.9,14.7,9.4,22.9,5.8     c1.7-0.8,3.2-1.8,4.5-2.9c5.1,4.4,13.4,5.7,20.2,2.7c7.8-3.5,11-11.4,7.5-18c3.8,0.7,7.9,0.3,11.7-1.3     c8.2-3.7,11.3-12.2,6.9-19.1c-2.3-3.5-6.1-5.9-10.5-6.9c2.6-4.7,2.5-10.4-0.6-15.3c-5.4-8.4-18-11.6-28.1-7.1     c-2.9,1.3-5.3,3.1-7.1,5.2c-6-7.1-17.4-9.5-26.8-5.3c-5.4,2.4-8.9,6.5-10.3,11.1c-2.8-0.4-5.8,0-8.4,1.2c-6.6,3-9.1,9.8-5.6,15.4     c0.5,0.8,1.1,1.4,1.7,2.1C328.7,298.6,327.8,305.8,331.7,311.9z"/>
			
				<linearGradient id="SVGID_23_" gradientUnits="userSpaceOnUse" x1="-2140.4795" y1="-3385.9722" x2="-2140.4795" y2="-3481.5989" gradientTransform="matrix(-1 0 0 -1 -2047.3116 -3136.9746)">
				<stop offset="0" style="stop-color:#FFFFFF"/>
				<stop offset="0.2555" style="stop-color:#FFFFFF"/>
				<stop offset="0.8331" style="stop-color:#FFFFFF"/>
				<stop offset="1" style="stop-color:#FFFFFF"/>
			</linearGradient>
			<path class="st20" d="M34.2,288.7c-7.4,1.4-13.9,5.5-17.3,11.6c-5.8,10.5-0.3,22.8,12.2,27.6c5.9,2.3,12.4,2.4,18.1,0.9     c1.1,6,5.7,11.4,12.8,14.1c10.7,4.1,23.3,0.6,28.9-7.8c2.1,2.3,4.8,4.1,8.1,5.4c9.6,3.7,20.7,1,26.6-5.9c2.5,2.4,5.6,4.4,9.3,5.9     c13.7,5.3,29.9,0.3,36.2-11.1c5.7-10.2,1.4-22.1-9.4-28.3c1.8-1.4,3.3-3.2,4.4-5.2c4.8-8.6,0.2-18.8-10.1-22.8     c-7.1-2.7-15.2-1.8-21,1.9c-1.8-7.1-7.4-13.4-15.9-16.6c-6.9-2.6-14.4-2.8-21.1-0.9c-1.8-3-4.8-5.5-8.7-7     c-8.6-3.3-18.7-0.5-23.4,6.2c0,0-0.1,0-0.1,0c-12.5-4.8-27.4-0.2-33.2,10.2C26.7,274.2,28.4,282.7,34.2,288.7z"/>
			
				<linearGradient id="SVGID_24_" gradientUnits="userSpaceOnUse" x1="-2116.7583" y1="-3365.3623" x2="-2116.7583" y2="-3528.1794" gradientTransform="matrix(-1 0 0 -1 -2047.3116 -3136.9746)">
				<stop offset="0" style="stop-color:#FFFFFF"/>
				<stop offset="0.2555" style="stop-color:#FFFFFF"/>
				<stop offset="0.8331" style="stop-color:#FFFFFF"/>
				<stop offset="1" style="stop-color:#FFFFFF"/>
			</linearGradient>
			<path class="st21" d="M133.6,276.2c-7.6-3.3-15.8-4.2-23.6-3.1c-2.3-16-13.7-30.9-32.2-38.9c-25.9-11.3-57.2-5.5-75.1,12.6     c-4-4.8-9.4-9-16.2-11.9c-0.4-0.2-0.9-0.4-1.3-0.5v147c6.4-1.2,12.5-3.7,17.6-7.3c3.8,5.4,9.5,10,16.6,13.2     c20.5,8.9,45.8,2.3,56.5-14.7c2.1-3.3,3.4-6.7,4.2-10.2c16.9,4.3,35.6-1.9,44.1-15.4c2.8-4.4,4.1-9.1,4.2-13.8     c8.6-2.5,16.2-7.6,20.8-14.9C158.9,302.9,151.9,284.1,133.6,276.2z"/>
			
				<linearGradient id="SVGID_25_" gradientUnits="userSpaceOnUse" x1="-2352.291" y1="-3383.9841" x2="-2352.291" y2="-3462.9709" gradientTransform="matrix(-1 0 0 -1 -2047.3116 -3136.9746)">
				<stop offset="0" style="stop-color:#FFFFFF"/>
				<stop offset="0.2555" style="stop-color:#FFFFFF"/>
				<stop offset="0.8331" style="stop-color:#FFFFFF"/>
				<stop offset="1" style="stop-color:#FFFFFF"/>
			</linearGradient>
			<path class="st22" d="M251.4,307.9c4.5,2,9.4,2.6,14.1,2c1.6,4.1,5,7.7,9.9,9.8c7.5,3.3,16.3,2.3,22.5-2c1.9,2.6,4.6,4.9,8.1,6.4     c9.9,4.3,22.2,1.1,27.4-7.2c1-1.6,1.7-3.3,2-4.9c8.2,2.1,17.3-0.9,21.4-7.5c1.3-2.1,2-4.4,2.1-6.7c4.2-1.2,7.9-3.7,10.1-7.2     c4.6-7.4,1.2-16.5-7.7-20.4c-3.7-1.6-7.7-2-11.5-1.5c-1.1-7.8-6.6-15-15.6-18.9c-12.6-5.5-27.7-2.7-36.4,6.1     c-1.9-2.4-4.6-4.4-7.8-5.8c-10.7-4.6-23.8-1.2-29.4,7.7c-2.7,4.4-3.1,9.3-1.6,13.6c-7.2,0.8-13.8,4.4-17.4,10.2     C235.6,291.2,240,302.9,251.4,307.9z"/>
			
				<linearGradient id="SVGID_26_" gradientUnits="userSpaceOnUse" x1="-2449.8367" y1="-3300.2974" x2="-2449.8367" y2="-3515.2722" gradientTransform="matrix(-1 0 0 -1 -2047.3116 -3136.9746)">
				<stop offset="0" style="stop-color:#3880FF"/>
				<stop offset="0.2555" style="stop-color:#679EFF"/>
				<stop offset="0.8331" style="stop-color:#DCE9FF"/>
				<stop offset="1" style="stop-color:#FFFFFF"/>
			</linearGradient>
			<path class="st23" d="M455.8,178.7c-14.1,1.9-26.3,8.5-34.4,17.7c-5.1-1.6-10.6-2.5-16.4-2.5c-26,0-47.1,17.6-47.1,39.2     c0,5.3,1.3,10.2,3.5,14.8c-7.6,7.2-12.2,16.6-12.2,27c0,16.5,11.7,30.7,28.5,37.2c-0.3,2.1-0.4,4.2-0.4,6.3     c0,33.1,32.2,59.9,71.9,59.9c2.2,0,4.4-0.1,6.6-0.3V178.7z"/>
			
				<linearGradient id="SVGID_27_" gradientUnits="userSpaceOnUse" x1="-2233.2842" y1="-3350.8665" x2="-2233.2842" y2="-3416.5134" gradientTransform="matrix(-1 0 0 -1 -2047.3116 -3136.9746)">
				<stop offset="0" style="stop-color:#FFFFFF"/>
				<stop offset="0.2555" style="stop-color:#FFFFFF"/>
				<stop offset="0.8331" style="stop-color:#FFFFFF"/>
				<stop offset="1" style="stop-color:#FFFFFF"/>
			</linearGradient>
			<path class="st24" d="M141.6,248c0,5,3.6,9.4,8.7,11.4c-0.1,0.6-0.1,1.3-0.1,1.9c0,10.1,9.8,18.3,21.9,18.3     c7.1,0,13.4-2.8,17.4-7.2c2.9,1.9,6.6,3,10.6,3c9.6,0,17.4-6.5,17.4-14.5c0-1-0.1-2.1-0.4-3c0.1,0,0.3,0,0.4,0     c7,0,12.7-4.7,12.7-10.6c0-4.7-3.7-8.8-8.9-10.1c0.8-1.6,1.3-3.4,1.3-5.2c0-7.5-7.3-13.6-16.3-13.6c-0.4,0-0.8,0-1.3,0     c-2.6-2.8-6.7-4.5-11.3-4.5c-4.9,0-9.3,2.1-11.9,5.2c-1.6-0.5-3.4-0.7-5.2-0.7c-5.4,0-10.2,2.2-13.1,5.6c-1.6-0.5-3.2-0.8-5-0.8     c-7.9,0-14.4,5.4-14.4,12c0,1.6,0.4,3.1,1.1,4.5C143.1,241.9,141.6,244.8,141.6,248z"/>
			
				<linearGradient id="SVGID_28_" gradientUnits="userSpaceOnUse" x1="-2303.3545" y1="-3325.4221" x2="-2303.3545" y2="-3464.3384" gradientTransform="matrix(-1 0 0 -1 -2047.3116 -3136.9746)">
				<stop offset="0" style="stop-color:#3880FF"/>
				<stop offset="0.2555" style="stop-color:#679EFF"/>
				<stop offset="0.8331" style="stop-color:#DCE9FF"/>
				<stop offset="1" style="stop-color:#FFFFFF"/>
			</linearGradient>
			<path class="st25" d="M162.2,252.2c2.6,2.3,5.7,4.3,9.2,5.8c-6.5,4.7-11.1,11.1-12.7,18.4c-0.4,1.9-0.6,3.9-0.6,5.9     c0,17.7,17.3,32.1,38.6,32.1c8.5,0,16.4-2.3,22.8-6.2c6,11.3,19.5,19.2,35.3,19.2c18.9,0,34.6-11.4,37.9-26.3     c6.9,4.5,15.6,7.2,25,7.2c22.6,0,40.9-15.2,40.9-34c0-16.4-14-30.2-32.6-33.3c2.6-4.2,4.1-9,4.1-14.1c0-16.9-16.4-30.6-36.7-30.6     c-9.1,0-17.4,2.8-23.9,7.3c-6.4-9-18.1-15-31.6-15c-16.6,0-30.7,9.2-35.2,21.9c-4.9-2.4-10.5-3.8-16.6-3.8     c-18,0-32.6,12.2-32.6,27.2C153.5,240.8,156.8,247.3,162.2,252.2z"/>
			
				<linearGradient id="SVGID_29_" gradientUnits="userSpaceOnUse" x1="-2230.3323" y1="-3374.2852" x2="-2230.3323" y2="-3517.2998" gradientTransform="matrix(-1 0 0 -1 -2047.3116 -3136.9746)">
				<stop offset="0" style="stop-color:#FFFFFF"/>
				<stop offset="0.2555" style="stop-color:#FFFFFF"/>
				<stop offset="0.8331" style="stop-color:#FFFFFF"/>
				<stop offset="1" style="stop-color:#FFFFFF"/>
			</linearGradient>
			<path class="st26" d="M48.8,327.1c-1.2,17.3,14.7,32.1,35.4,33.1c8.5,0.4,16.6-1.6,23.1-5.3c5.6,11.7,18.8,20.3,34.9,21     c11,0.5,21.2-2.7,28.9-8.4c4.7,7.1,13.5,12.2,24,12.7c9.4,0.5,18-2.9,23.8-8.4c5.6,3.5,12.5,5.8,20.1,6.2c20.4,1,37.9-12,39-29     c0.2-3.1-0.1-6.1-1-9c0.8-1.2,1.6-2.4,2.2-3.6c20,0.5,36.9-12.3,38-29c1.2-17-14.4-31.5-34.8-32.5c-2.2-0.1-4.4,0-6.5,0.2     c-3.8-8.6-13.4-15-25.1-15.5c-5.1-0.2-10,0.7-14.3,2.4c-3.8-13.5-17.9-23.8-35.3-24.7c-16.2-0.8-30.6,6.9-37.2,18.4     c-6-4-13.6-6.6-21.8-7c-16.1-0.8-30.4,6.8-37,18.2c-1.9-0.4-3.9-0.7-5.9-0.8c-15.3-0.7-28.4,9-29.3,21.7     c-0.3,4.2,0.8,8.2,2.9,11.7C59.5,303.9,49.7,314.4,48.8,327.1z"/>
			
				<linearGradient id="SVGID_30_" gradientUnits="userSpaceOnUse" x1="-2120.2673" y1="-3316.7251" x2="-2120.2673" y2="-3443.3926" gradientTransform="matrix(-1 0 0 -1 -2047.3116 -3136.9746)">
				<stop offset="0" style="stop-color:#3880FF"/>
				<stop offset="0.2555" style="stop-color:#679EFF"/>
				<stop offset="0.8331" style="stop-color:#DCE9FF"/>
				<stop offset="1" style="stop-color:#FFFFFF"/>
			</linearGradient>
			<path class="st27" d="M129.8,213.1c-2-0.1-3.9,0-5.8,0.2c-3.4-7.6-11.9-13.2-22.2-13.7c-4.5-0.2-8.9,0.6-12.7,2.2     c-3.4-11.9-15.8-21.1-31.3-21.9c-14.4-0.7-27.1,6.1-32.9,16.3c-5.3-3.6-12-5.8-19.3-6.2c-7.5-0.4-14.5,1.3-20.3,4.4v101.6     c5.6,3.8,12.6,6.2,20.3,6.6c9.8,0.5,18.8-2.4,25.6-7.4c4.1,6.3,12,10.8,21.3,11.2c8.3,0.4,16-2.5,21-7.4c5,3.1,11.1,5.1,17.8,5.5     c18.1,0.9,33.5-10.6,34.6-25.7c0.2-2.8-0.1-5.4-0.9-8c0.7-1,1.4-2.1,1.9-3.2c17.7,0.5,32.7-10.9,33.7-25.7     C161.6,226.8,147.8,213.9,129.8,213.1z"/>
			
				<linearGradient id="SVGID_31_" gradientUnits="userSpaceOnUse" x1="-2097.2322" y1="-3315.6646" x2="-2097.2322" y2="-3474.2368" gradientTransform="matrix(-1 0 0 -1 -2047.3116 -3136.9746)">
				<stop offset="0" style="stop-color:#FFFFFF"/>
				<stop offset="0.2555" style="stop-color:#FFFFFF"/>
				<stop offset="0.8331" style="stop-color:#FFFFFF"/>
				<stop offset="1" style="stop-color:#FFFFFF"/>
			</linearGradient>
			<path class="st28" d="M98.8,235.6c-5.4-2.7-11.3-3.9-17.2-3.9c3.2-8.2-0.6-17.4-9.9-22.1c-2.1-1-4.2-1.7-6.5-2.2     c-2.4-8.3-8.7-15.9-18.2-20.7c-0.1,0-0.1-0.1-0.2-0.1c-1.9-1.8-4.1-3.4-6.7-4.6c-13.2-6.6-30.3-3.3-38.7,7.3     c-1.1,0.7-2.1,1.5-3.1,2.3c-1.2-1-2.5-1.8-4-2.6c-2.9-1.5-6.1-2.3-9.2-2.6v149.8c11.5-2.1,21.9-8,28.5-17.1     c0.6-0.8,1.1-1.6,1.6-2.4c0.7,0.4,1.5,0.9,2.2,1.2c19.8,9.9,45.5,4.6,57.4-11.9c4.6-6.4,6.4-13.4,5.9-20.3     c11.5,0.4,22.8-4.3,29.1-13.1C119.2,260,114.2,243.3,98.8,235.6z"/>
			
				<linearGradient id="SVGID_32_" gradientUnits="userSpaceOnUse" x1="-2375.1604" y1="-3302.4736" x2="-2375.1604" y2="-3470.1897" gradientTransform="matrix(-1 0 0 -1 -2047.3116 -3136.9746)">
				<stop offset="0" style="stop-color:#FFFFFF"/>
				<stop offset="0.2555" style="stop-color:#FFFFFF"/>
				<stop offset="0.8331" style="stop-color:#FFFFFF"/>
				<stop offset="1" style="stop-color:#FFFFFF"/>
			</linearGradient>
			<path class="st29" d="M455.8,272.7v-44.9c-1.1-0.8-2.4-1.5-3.6-2.1c-5.7-2.8-12-4.2-18.1-4.1c3.4-8.7-0.6-18.5-10.4-23.3     c-2.2-1.1-4.5-1.8-6.8-2.3c-2.6-8.8-9.2-16.8-19.3-21.9c-0.1,0-0.1-0.1-0.2-0.1c-2-1.9-4.4-3.5-7.1-4.9c-14-7-32-3.5-40.9,7.7     c-1.1,0.8-2.2,1.6-3.3,2.5c-1.3-1-2.6-1.9-4.2-2.7c-10-5-22.6-3.2-30.1,3.8c-3.1-3.4-7.1-6.5-11.8-8.8c-20-10-46-4.6-58,12     c-3.9,5.4-5.8,11.3-6,17.2c-12.2-0.5-24.4,4.4-31.2,13.8c-9.7,13.5-4.5,31,11.7,39.1c3,1.5,6.1,2.6,9.4,3.2     c-5,14.1,1.7,29.7,17.5,37.6c10,5,21.5,5.9,31.8,3.3c1.4,11.9,9.3,23.2,22.6,29.8c22.2,11.1,51.1,5.1,64.4-13.4     c0.6-0.8,1.2-1.7,1.7-2.6c0.8,0.4,1.5,0.9,2.4,1.3c21,10.5,48.1,4.8,60.7-12.6c4.8-6.7,6.8-14.2,6.2-21.5     C441.3,279.1,449.4,277,455.8,272.7z"/>
			
				<linearGradient id="SVGID_33_" gradientUnits="userSpaceOnUse" x1="-2165.9023" y1="-3295.2229" x2="-2165.9023" y2="-3460.5112" gradientTransform="matrix(-1 0 0 -1 -2047.3116 -3136.9746)">
				<stop offset="0" style="stop-color:#FFFFFF"/>
				<stop offset="0.2555" style="stop-color:#FFFFFF"/>
				<stop offset="0.8331" style="stop-color:#FFFFFF"/>
				<stop offset="1" style="stop-color:#FFFFFF"/>
			</linearGradient>
			<path class="st30" d="M-4.4,241.7c-5.8,14.5,3.6,30.2,21,35c3,0.8,6,1.3,9,1.4c-2.5,18.8,10.9,37.1,33.2,43.3     c21,5.8,43.4-0.8,55.6-15.1c16.4,3,33.1-4.8,38.5-18.3c0.1-0.2,0.1-0.4,0.2-0.6c2,1,4.2,1.8,6.5,2.4c19.5,5.4,40.5-3.3,47-19.6     c0.9-2.3,1.5-4.7,1.8-7c14.7-1.9,27.7-10.5,32.7-23c7.2-18-4.5-37.4-26-43.4c-7.6-2.1-15.5-2.2-22.7-0.8     c-1.4-15.9-14.1-30.4-33.4-35.7c-20.1-5.6-41.4,0.2-53.9,13.3c-4.6-5-11.1-9-18.8-11.2c-17.7-4.9-36.6,1.1-46,13.8     c-15.9,1.1-30.2,9.9-35.5,23.3c-3.9,9.8-2.2,19.9,3.6,28.2C2.6,231-2,235.8-4.4,241.7z"/>
			
				<linearGradient id="SVGID_34_" gradientUnits="userSpaceOnUse" x1="-2461.0247" y1="-3364.1418" x2="-2461.0247" y2="-3419.9243" gradientTransform="matrix(-1 0 0 -1 -2047.3116 -3136.9746)">
				<stop offset="0" style="stop-color:#FFFFFF"/>
				<stop offset="0.2555" style="stop-color:#FFFFFF"/>
				<stop offset="0.8331" style="stop-color:#FFFFFF"/>
				<stop offset="1" style="stop-color:#FFFFFF"/>
			</linearGradient>
			<path class="st31" d="M455.8,253.3c-1.7-2.2-4.3-3.9-7.6-4.6c-0.1,0-0.1,0-0.2,0c0.4-0.7,0.7-1.4,0.9-2.1     c1.2-4.8-2.6-9.5-8.4-10.5c-1.9-0.3-3.8-0.2-5.5,0.3c-1.5-4.2-5.5-7.6-11-8.7c-6.2-1.3-12.4,0.7-16,4.7c-1-0.4-2-0.7-3.1-1     c-8.1-1.7-16.3,2.4-18.3,9.1c-0.5,1.8-0.6,3.6-0.2,5.3c-8.3,0.9-14.7,6.8-14.7,13.9c0,7.8,7.5,14,16.9,14c0.7,0,1.5,0,2.2-0.1     c1.4,4.3,5.5,7.9,11.1,9c7,1.5,14.1-1.3,17.3-6.5c1.2,0.6,2.5,1.1,3.9,1.3c7.8,1.6,15.7-2.3,17.7-8.8l0-0.1     c0.5,0.1,0.9,0.3,1.4,0.4c5.4,1.1,10.9-0.9,13.7-4.6V253.3z"/>
		</g>
	</g>
</g>
<g>
	<linearGradient id="SVGID_35_" gradientUnits="userSpaceOnUse" x1="124.2563" y1="236.1206" x2="312.2968" y2="236.1206">
		<stop offset="0" style="stop-color:#3880FF"/>
		<stop offset="0" style="stop-color:#669DFF"/>
		<stop offset="0" style="stop-color:#92B9FF"/>
		<stop offset="1" style="stop-color:#FFFFFF"/>
	</linearGradient>
	<path class="st32" d="M312.3,236.1c0,4.3-42.1,7.8-94,7.8c-51.9,0-94-3.5-94-7.8c0-4.3,42.1-7.8,94-7.8   C270.2,228.4,312.3,231.8,312.3,236.1z"/>
	<path class="st33" d="M171.7,200.9c0,0-26.8,0.4-26.8,4.6c0,4.2,21.4,9.4,22.8,17.7c1.4,8.3,4.1,9.1,11,9.1   c6.9,0,35.8-2.4,35.8-2.4s16.4-19.2,7.5-23.5C213.2,202,171.7,200.9,171.7,200.9z"/>
	<path class="st34" d="M214.5,229.9c0,0,6.6-3.7,13.6-7.3c7-3.5,14.3-31.7,12.1-34l-17.7,27L214.5,229.9z"/>
	<path class="st35" d="M240.2,188.6l-18.1-14.3l-8.7,10.7l2.4,29.7c0,0,9.5,3.8,14.3-3.6c4.8-7.4-0.2-10.3,5.5-13.6   C241.3,194.3,240.2,188.6,240.2,188.6z"/>
	<polygon class="st34" points="185.1,171.1 222.1,174.4 213.4,185 178.7,180.4  "/>
	<path class="st36" d="M162.2,179c0,0-16.5,13.6-17.7,20.3c-1.2,6.7,1,8.1,7.9,11.9c6.9,3.8,11.5,6.2,20.8,3.8   c9.3-2.4,7.9-2,18.9,0.8c11,2.8,23.7-1,23.7-1l-1.8-32.2L162.2,179z"/>
	<path class="st37" d="M140.3,66.5c0,0,16.2,27.8,32.6,34.4c16.5,6.6,17.2,5.6,17.2,5.6s-7.4,12.3-11.9,12.3c-4.5,0-27.6-21-32-30   c-4.4-9-9.3-21.2-9.3-21.2s-0.5-1.2-2.7-3.3c-2.2-2.2-4.7-6-4.3-6.4c0.4-0.4,1.8-4.3,3.9-4.8C136.1,52.7,140.3,66.5,140.3,66.5z"/>
	<path class="st38" d="M285.6,95.1c15-1.7,27.6-16.4,29.1-18.9c1.4-2.4,2.1-4.5,2.2-5.6c0-0.3-0.3-0.4-0.5-0.1   c-0.3,0.6-0.8,1.6-1,2.2c-0.9,2.2-1.7,2.8-2.3,2.8c-0.3-0.4,0.1-1.3,1.4-4.3c0.6-1.4,1.5-3.3,1.4-3.6c-0.5-1.5-1.8,1.6-2.4,3.1   c-0.5,1.5-0.9,3.1-1.8,3.1c-0.3,0,0.1-2,0.8-4.4c2.8-8.8,0.2-6.2-0.9-1.8c-1,4-1.3,5.8-1.7,5.8c-0.3-0.3-0.2-1.2,0.4-4   c0.3-1.6,0.4-4.4,0.2-4.8c-0.6-0.6-0.9,0.9-1,1.7c0,0.1-0.9,8.6-2.5,8.9c-1.6,0.3-1.2-2.1-1-3.5c0.2-1.5-0.9-2.5-1.3-2.1   c-0.5,0.6,0.6,2.4,0.1,4.7c-0.6,2.3-1.2,5.9-1.2,6.8c0,0,0,0.4,0,0.4s-7.6,5.9-19.3,2.7C272.7,80.8,260.5,49,253.3,49   c0,0-8.3-3.4-18.2,0c-10,3.4-22.3,14.3-34,11c-11.7-3.3-18.5-24-18.5-24.8c0-4.8-2-7.9-2-11.4c0-1.7-0.3-2.1-0.4-2.2   c-0.1-0.1-0.5,0.1-1.1,0.6c-1,1,1,5.3,0.1,6.2c-0.2,0.2-0.6,0.3-0.9-0.1c-1.3-1.3-5.4-12.9-6.4-12.7c-0.7,0.2,0.4,2.2,0.4,2.2   c3,6.9,4,9.3,2.7,9.3c-0.2,0-0.4-0.1-0.5-0.2c-1-1-4.9-10.5-6.6-10.8c-0.4-0.1,0.6,2.5,0.6,2.6c0.5,1.1,4.9,8.1,4.4,9.1   c-1,1.9-6-8.8-7.2-7.5c-0.7,0.7,1.9,3.3,2.9,4.7c2,3,2.4,3.7,2.2,4.3c-0.5,1-2.4-0.6-3.7-1.5c-1-0.8-2.9-2.1-3.6-2.2   c0.1,1.4,3.9,4.1,5.1,4.9c2.1,1.6,1.7,1.1,6.9,7.3c1.7,2.1,2.2,4.6,2.6,5.8c0.1,0,7,21.6,16.8,24.6c11.1,3.4,27.8,1.2,27.8,1.2   s-5.5,22.8-8.1,40.7c13.4-1.3,26.7-0.4,39.8,2l5.4-36C259.8,76,270.6,96.8,285.6,95.1z"/>
	<path class="st39" d="M213.2,124.7c0,15.9,0.8,56.9,0.8,56.9l3.9,47.4c0,0-4.4,1.4-7.2,2.6c0,0,2.3,0.2,6,0.2c3.7,0,5.4,0,5.4,0   s0.1-2.1,0.1-5.2c0-3.1,1.3-46.8,1.9-47.4c0.6-0.6,8.8-44.7,8.8-44.7l13.3,52.3l8.4,45v8.3l3.9,2.7c0,0,2.9-3.8,2.9-6   c0-2.2-3.4-7.1-3.4-7.1l-1.1-50.5l-4.1-56.6l0.5-3.3c-12.7-3.2-25.1-8.4-38.8-8.7C213.7,116.2,213.2,121.1,213.2,124.7z"/>
	<path class="st40" d="M277.4,79.2c-9.4-9.8-18.3-30.2-24.1-30.2c0,0-8.3-3.4-18.2,0c-9,3.1-19.9,12.1-30.5,11.5   c0.1,4.1,1.6,8.1,3,12c8-0.8,15.2-3.3,15.2-3.3s-6.2,25.9-8.6,44.1c12.7,4.7,25.4,9.8,38.7,10.2l-0.1-0.9l7-46.8   c0,0,3.1,5.9,8.2,11.2C270.4,84.2,273.9,81.7,277.4,79.2z"/>
	<path class="st38" d="M247.6,42.7c0,0-4,6.8-4.5,8.8c-0.4,2,3.6,6.1,7.1,5.1c3.5-1,11.5-17.9,11.5-17.9L247.6,42.7z"/>
	<path class="st37" d="M259.8,42.7c1.2-2.3,2-4,2-4l-14.2,4c0,0-0.8,1.4-1.8,3.1c1,0.9,2.7,1.4,5,1.4   C253.8,47.2,257.2,44.9,259.8,42.7z"/>
	<path class="st38" d="M257.3,21.7c0,0-2.8-0.1-6.3,3.4c-3.5,3.5-6.7,11.2-6.7,15.5c0,2.6,1.9,4.3,6.4,4.3c4.5,0,9.9-4.7,12-6.8   C264.9,35.9,268,24.6,257.3,21.7z"/>
	<path class="st41" d="M252.5,26.9c0,0-2.6,2-5,0.4c-2.4-1.5-0.6-3.4-0.6-5.6c0-2.1-2.8-10.5,6.3-10.5c9.1,0,6.6,10.6,9.3,11.4   c2.7,0.9,8.3,1,7.6,5.2c-0.8,4.2-3.3,3.5-2.7,6c0.6,2.5-6.3,5.9-7.4,6.7c-1.1,0.8-3.7,0.4-1.3-2c2.4-2.4,4.6-3.7,4.6-5.4   c0-1.7-1-4.1-2.1-3c-0.5,0.5-3.5,1.3-4-0.7c-0.5-2-2.6-0.9-3.8-1.2C252.1,28.1,252.5,26.9,252.5,26.9z"/>
	<path class="st38" d="M260,40c0.3-0.4,1.8-4.7,3.8-3c2,1.8-0.7,5.5-2.8,4.9C259,41.3,260,40,260,40z"/>
	<path class="st42" d="M205.6,109.4c-0.2-0.1-0.4-0.3-0.6-0.4c-8.4-4.6-15.7-4.6-15.7-4.6s-11.5,6.4-13.4,16   c-1.9,9.6,1.2,34.4,1.2,34.4s-20.1,17.9-21.4,25.9l1.6,2.6l37.5,1.2c0,0,7.7-7.4,9.3-11.7c1.5-4.3-7.7-14.1-7.7-17   c0-2.7,3.3-20.5,5.3-24.9C200.4,123.7,201.1,116.5,205.6,109.4z"/>
	<path class="st42" d="M218.2,185.2c0.1-1.2,0.1-2.2,0.1-2.2S218.2,184,218.2,185.2z"/>
	<path class="st43" d="M194.8,184.5l1.1-3.2c0,0-12.2-9.3-22.2-9.3c0,0-1.8,1.7-6.7,3.3c-4.9,1.7-14.5,2.7-10.3,7.9   C161,188.4,194.8,184.5,194.8,184.5z"/>
	<polygon class="st44" points="130.7,43.6 131,60.7 135.4,61.8 137.7,45  "/>
	<path class="st38" d="M128.9,56.1c0,0,6.5-8.1,6.5-6.4c0,1.7-2.9,4.4-2.9,4.4s2.9-2.5,2.9-1.5c0,1-2.3,4-2.3,4s2.3-1.7,2.3-0.7   c0,1-2.5,4.9-3.3,5.7c-0.8,0.8-2.1-1.2-2.1-1.2s-2.1-0.1-2.1-1S128.9,56.1,128.9,56.1z"/>
	<path class="st38" d="M194.4,91.3c0,0-1.6,11.9-4.2,14.4c0,0,1.3,4.9,8,2.1c0,0,4.8-12.4,5.4-18C204.3,84.1,194.4,91.3,194.4,91.3z   "/>
	<path class="st37" d="M194.4,91.3c0,0-0.5,3.8-1.4,7.6c3.5-1,10.7-6.9,10.7-9.1C203.7,84.1,194.4,91.3,194.4,91.3z"/>
	<path class="st38" d="M193.7,75.9c0,0-3.9,1.9-4.8,5.3c-0.9,3.4-4.5,4.3-4.5,4.3s0,1.6,0.7,2.2c0.6,0.6,0.2,1.5,0.2,1.5   s-0.5,0-0.5,0.5c0,0.5,0.5,0.9,0.5,0.9s-0.6-0.1-0.6,0.5c0,0.6,0.5,0.8,0.5,1.2c0,0.4-0.2,1.3-0.2,2.6c0,1.3-0.1,2.7,4.5,2.4   c4.6-0.3,10.1-3,11.2-4.1c1.2-1.2,3.4-1.7,3.4-1.7s4.8-5.7,2.4-9.7C204.1,77.9,193.7,75.9,193.7,75.9z"/>
	<path class="st38" d="M175.6,172.1c-2.1-0.3-3.8,1.8-3.2,3.8c1.6,4.9,6.5,15.8,19.9,25.8c18,13.4,32.7,21.1,34.7,25.4   c0.9,1.9,1.5,4.1,2,6c0.5,2.2,0.8,3.8,0.8,3.8l0.5,0.3c0,0,2.5-0.3,4.1-2c1.7-1.7-5.4-11.6-5.4-11.6s-24.6-31.3-33.2-39.9   C189.5,177.5,180.7,172.9,175.6,172.1z"/>
	<path class="st45" d="M229.1,233.8c0,0,1.9,1.3,2.7,1.3c0.9,0,1.5-4.3,1.5-4.3s1.3,1.4,1.3,3.6c0,2.2-2.9,4.2-3.5,4.2   C230.5,238.6,229.5,237.8,229.1,233.8z"/>
	<path class="st38" d="M160.6,177.8c0,0-3.2-1.4-3.8,3.5c-0.7,4.9,40.6,46.7,43.7,49.8c3,3,8.1,7.3,8.1,9.1c0,1.8-1,4.4,1.1,1.2   c2.1-3.2-0.3-3.9-0.3-5.5c0-1.5,0.6-3.7-0.3-4.6c-0.9-0.9-3.1-0.8-3.1-0.8s-22.8-35.9-27.8-43.3   C173.1,179.8,160.6,177.8,160.6,177.8z"/>
	<path class="st45" d="M205.9,230.5c0,0,0.3,2.8,1.7,4.2c1.4,1.4,1.7,3.6,1.3,4.6c-0.4,1-0.3,0.2-0.5,0.4c-0.3,0.3-0.4,3.6,0.1,3.6   c0.5,0,1.6-1.6,2.2-3.8c0,0-0.7-4.4-0.7-5.8c0-1.4-0.5-3.4-0.5-3.4L205.9,230.5z"/>
	<path class="st38" d="M219.9,146.3c-1.4-9.4-6.2-31.6-14.2-36.9c-4.5,7.2-5.3,14.4-3.9,21.6c0.2-0.4,0.3-0.7,0.5-0.8   c1.9-1.9,10.8,14.7,14.4,29.3c3.6,14.6,0,20.6,0,20.6s-0.6,10,0.5,9.6c0.7-0.2,0.9-2.6,1-4.5c0-1.2,0.1-2.2,0.1-2.2s0,1-0.1,2.2   c0,1.9,0.1,4.3,0.7,4.5c1,0.3,0.5-6.7,0.5-6.7s0.7,5.3,1.3,5.8c0.5,0.5,1.5-1.7,0.9-4.4c-0.6-2.8-0.8-4.8,0.2-7.2   C222.7,174.7,221.3,155.9,219.9,146.3z"/>
	<path class="st46" d="M185.3,90.6c0.8,0.4,1.7,0.6,2.5,0.3c0,0,0.1,0,0.1,0.1c0,0,0,0.1-0.1,0.1c0,0,0,0,0,0   C186.9,91.3,186,91,185.3,90.6z"/>
	<g>
		<path class="st47" d="M170.6,45.3c0,0-0.1,0-0.1,0c-13.6-4.3-19.8-23.2-19.9-23.4c-0.1-0.2,0.1-0.5,0.3-0.5    c0.2-0.1,0.5,0.1,0.5,0.3c0.1,0.2,6.2,18.6,19.3,22.8c0.2,0.1,0.4,0.3,0.3,0.5C170.9,45.1,170.8,45.3,170.6,45.3z"/>
	</g>
	<g>
		<path class="st47" d="M174.7,53.6C174.6,53.6,174.6,53.6,174.7,53.6c-13.5-1.6-18.1-8.3-18.3-8.5c-0.1-0.2-0.1-0.5,0.1-0.6    c0.2-0.1,0.5-0.1,0.6,0.1c0,0.1,4.6,6.6,17.6,8.2c0.2,0,0.4,0.2,0.4,0.5C175.1,53.4,174.9,53.6,174.7,53.6z"/>
	</g>
	<g>
		<path class="st47" d="M322,86.2c-0.1,0-0.2,0-0.3-0.1c-0.2-0.2-0.2-0.4,0-0.6c11-11,6.6-24.6,6.6-24.7c-0.1-0.2,0-0.5,0.3-0.6    c0.2-0.1,0.5,0,0.6,0.3c0,0.1,4.6,14.2-6.8,25.6C322.2,86.1,322.1,86.2,322,86.2z"/>
	</g>
	<path class="st47" d="M192.7,83.3c0,0-0.9-2.3-2-2.7c-1.2-0.4-1.2-0.4-1.2-0.4l0,0.6C189.5,80.8,190.9,80.4,192.7,83.3z"/>
	<path class="st47" d="M187.2,82.5l4.3,2C189.8,82.9,187.2,82.5,187.2,82.5z"/>
	<path class="st41" d="M206.6,77.4c0,0-3.1-2.4-6.7-3.2c-3.6-0.8-4.4-2.5-7-3.3c-2.6-0.8-6.5,0.2-5.3,3.3s0.1,2.7,0.1,4   c0,1.3,3.1,3.5,7.3,4.4c4.2,0.9,4.7-1.5,6,1.7c1.4,3.1-1.1,4.4,0,5.6c1.1,1.1,1.6,5.1,1.6,5.1s0.8-2.2,3.3-3.3   c2.5-1.1,5.7-6.7,4.5-10.2C209.1,77.8,206.6,77.4,206.6,77.4z"/>
	<path class="st38" d="M199,84c0,0,1.1-2.6,2.6-1.5c1.5,1.1,1.9,5.2-0.8,5.3C198.2,88,199,84,199,84z"/>
	<path class="st37" d="M199.4,84.7c0,0,0.6-1.4,1.9-0.3c1.3,1.1,0.7,3.4-1.2,3.1C198.1,87.2,199.4,84.7,199.4,84.7z"/>
	<path class="st37" d="M261.2,38.8c0,0,1.3-1.6,1.9-0.6c0.7,1-1.2,3.1-2.3,2.8C259.7,40.7,261.2,38.8,261.2,38.8z"/>
	<g>
		<path class="st46" d="M253.4,33.5c-0.2,0.6-0.7,0.9-1.1,0.7c-0.4-0.2-0.5-0.7-0.3-1.3c0.2-0.6,0.7-0.9,1.1-0.7    C253.5,32.4,253.7,33,253.4,33.5z"/>
		<path class="st46" d="M249.3,31.8c-0.2,0.6-0.7,0.9-1.1,0.7c-0.4-0.2-0.5-0.7-0.3-1.3c0.2-0.6,0.7-0.9,1.1-0.7    C249.4,30.7,249.5,31.3,249.3,31.8z"/>
		<g>
			<path class="st46" d="M249.6,41c1.1-0.1,1.8-0.8,1.8-0.8c0.2-0.2,0.4,0.2,0.2,0.3c-0.6,0.4-1.3,0.7-2,0.7     c-1.1,0.1-2.1-0.4-2.1-0.4c0,0,0,0,0,0C247.8,40.8,248.5,41.1,249.6,41z"/>
		</g>
		<path class="st46" d="M254.1,29.7l-0.5,0.6c0,0,1.2,0.1,1.6,1.3C255.2,31.5,255.1,29.9,254.1,29.7z"/>
		<path class="st46" d="M248.7,29.2c0,0,1-0.2,1.5,0l-0.1-0.6C250.1,28.6,248.9,28.6,248.7,29.2z"/>
		<g>
			<path class="st46" d="M247.4,37.9c0,0,0.2-3.3,3.2-7.3c0.1-0.2,0.5,0,0.3,0.2c0,0-2.6,3.6-3.1,6.8c1.1,0.2,1.6,0.1,1.5,0.5     C249.2,38.4,248.8,38.1,247.4,37.9z"/>
		</g>
	</g>
</g>
</svg>